# xmcd CD database file
#
# Track frame offsets:
#	150
#	33070
#	45849
#	58270
#	73658
#	85194
#	99973
#	111817
#	124151
#	139237
#	152512
#	167753
#	179384
#	198320
#	209601
#	223729
#	240603
#	254885
#	266751
#	280939
#
# Disc length: 3956 seconds
#
# Revision: 0
# Processed by: cddbd v1.5.2PL0 Copyright (c) Steve Scherf et al.
# Submitted via: CDex 1.83
#
DISCID=2a0f7214
DTITLE=Toots Thielemans - Harmonica Celebration cd2
DYEAR=2016
DGENRE=Jazz
TTITLE0=East Of The Sun
TTITLE1=Scotch On The Rocks
TTITLE2=Penthouse Serenade
TTITLE3=The Nearness Of You
TTITLE4=A Pretty Girl Is Like A Melody
TTITLE5=In A Sentimental Mood
TTITLE6=This Is Always
TTITLE7=You Took Advantage Of Me
TTITLE8=Stranger In Paradise
TTITLE9=Cool And Easy
TTITLE10=Stairway To The Stars
TTITLE11=Love Walked In
TTITLE12=The Cuckoo In The Clock
TTITLE13=Long Ago And Far Away
TTITLE14=I Loves You, Porgy
TTITLE15=Early Autumn
TTITLE16=You Stepped Out Of A Dream
TTITLE17=Them There Eyes
TTITLE18=You're Driving Me Crazy
TTITLE19=A Handful Of Stars
EXTD=YEAR: 2016
EXTT0=
EXTT1=
EXTT2=
EXTT3=
EXTT4=
EXTT5=
EXTT6=
EXTT7=
EXTT8=
EXTT9=
EXTT10=
EXTT11=
EXTT12=
EXTT13=
EXTT14=
EXTT15=
EXTT16=
EXTT17=
EXTT18=
EXTT19=
PLAYORDER=
